THE CHICAGO CODE, the compelling new police drama from critically acclaimed creator Shawn Ryan ("The Shield"), follows the Windy City's most powerful and respected cops as they navigate the city's underbelly to fight crime and expose corruption within Chicago's notorious political machine.

Set and shot on location in Chicago, THE CHICAGO CODE is a fast-paced series centered on JAREK WYSOCKI (Jason Clarke), a local legend and a larger-than-life veteran of the Chicago Police Department who wields considerable power thanks to his relationship with TERESA COLVIN (Jennifer Beals), his ex-partner and the city's first female superintendent, now in charge of a 10,000-member police force. While Teresa diplomatically governs amidst the complicated landscape of Chicago politics, Jarek works the streets on a crusade to clean up corruption and crime.

Details:
The Chicago Code pilot S01E01 HDTV_JHW.mp4
Format                           : MPEG-4
Format profile                   : Base Media
Codec ID                         : isom
File size                        : 397 MiB
Duration                         : 44mn 26s
Overall bit rate                 : 1249 Kbps
Encoded date                     : UTC 2011-02-08 07:58:14
Tagged date                      : UTC 2011-02-08 07:58:14

Video
ID                               : 2
Format                           : AVC
Format/Info                      : Advanced Video Codec
Format profile                   : Baseline@L3.0
Format settings, CABAC           : No
Format settings, ReFrames        : 1 frame
Muxing mode                      : Container profile=Baseline@1.3
Codec ID                         : avc1
Codec ID/Info                    : Advanced Video Coding
Duration                         : 44mn 26s
Bit rate mode                    : Variable
Bit rate                         : 1 146 Kbps
Width                            : 640 pixels
Height                           : 480 pixels
Display aspect ratio             : 4:3
Frame rate mode                  : Constant
Frame rate                       : 29.970 fps
Original frame rate              : 29.000 fps
Color space                      : YUV
Chroma subsampling               : 4:2:0
Bit depth                        : 8 bits
Scan type                        : Progressive
Bits/(Pixel*Frame)               : 0.124
Stream size                      : 364 MiB (92%)
Language                         : English

Audio
ID                               : 1
Format                           : AAC
Format/Info                      : Advanced Audio Codec
Format profile                   : LC
Codec ID                         : 40
Duration                         : 44mn 26s
Bit rate mode                    : Constant
Bit rate                         : 96.0 Kbps
Channel(s)                       : 2 channels
Channel positions                : Front: L R
Sampling rate                    : 44.1 KHz
Compression mode                 : Lossy
Stream size                      : 30.5 MiB (8%)
Language                         : English


[img]http://img600.imageshack.us/img600/830/vlcsnap2011020809h46m23.png[/img]

[img]http://img823.imageshack.us/img823/1975/vlcsnap2011020809h46m36.png[/img]

[img]http://img146.imageshack.us/img146/3005/vlcsnap2011020809h46m47.png[/img]

[img]http://img708.imageshack.us/img708/3908/vlcsnap2011020809h47m03.png[/img]

[img]http://img511.imageshack.us/img511/5015/vlcsnap2011020809h47m44.png[/img]

[img]http://img196.imageshack.us/img196/4232/vlcsnap2011020809h47m58.png[/img]

[img]http://img28.imageshack.us/img28/9046/vlcsnap2011020809h48m40.png[/img]